<?xml version="1.0" encoding="UTF-8"?>
<svg version="1.1" xmlns="http://www.w3.org/2000/svg" width="225" height="225">
<path d="M0 0 C2.45524851 1.9299222 4.83363031 3.92263713 7.19921875 5.9609375 C7.88371094 6.51265625 8.56820312 7.064375 9.2734375 7.6328125 C29.50303721 24.32521305 42.2201253 51.15330616 45.19921875 76.9609375 C45.45196906 81.54840079 45.52961783 86.12146929 45.51489258 90.71411133 C45.51173773 92.76112509 45.53527729 94.80667947 45.56054688 96.85351562 C45.6230916 109.54952325 43.57340474 121.61280926 39.01171875 133.5234375 C38.71056152 134.32007813 38.4094043 135.11671875 38.09912109 135.9375 C33.36278479 148.06174248 26.73476364 158.1160566 18.19921875 167.9609375 C17.41546875 168.9921875 16.63171875 170.0234375 15.82421875 171.0859375 C11.71926675 175.58183731 7.00423268 179.23966312 2.19921875 182.9609375 C1.02359375 183.87746094 1.02359375 183.87746094 -0.17578125 184.8125 C-12.35108083 193.82057638 -26.1023743 199.56836494 -40.80078125 202.9609375 C-41.59436035 203.14712646 -42.38793945 203.33331543 -43.20556641 203.52514648 C-50.61011289 205.07540017 -57.93899762 205.30063954 -65.47851562 205.27661133 C-67.53440043 205.27346259 -69.58882411 205.29696235 -71.64453125 205.32226562 C-97.51612575 205.44599211 -122.54449794 196.29768624 -141.80078125 178.9609375 C-142.61546875 178.29964844 -143.43015625 177.63835937 -144.26953125 176.95703125 C-164.43651083 160.14057834 -176.2873868 134.63192412 -179.80078125 108.9609375 C-180.18752519 103.64378342 -180.23927023 98.3514201 -180.17578125 93.0234375 C-180.17112854 92.32371826 -180.16647583 91.62399902 -180.16168213 90.90307617 C-179.92396387 60.38109614 -168.79575986 31.62946002 -146.80078125 9.9609375 C-107.27559883 -26.03408509 -43.93634629 -31.98713077 0 0 Z " fill="#FE2301" transform="translate(179.80078125,20.0390625)"/>
<path d="M0 0 C26.32769197 -0.65546121 49.81444722 7.74813927 70 25 C66.30184727 28.98641178 62.52345388 31.77284951 57.875 34.5625 C56.44499832 35.43959213 55.01532476 36.31721941 53.5859375 37.1953125 C52.83795898 37.65196289 52.08998047 38.10861328 51.31933594 38.57910156 C20.83835149 56.88513355 20.83835149 56.88513355 -6 80 C-4.63733356 84.03805866 -2.8590849 86.54368118 0.0625 89.625 C3.28286473 93.09663523 6.35438096 96.6148512 9.3125 100.3125 C13.21555759 105.13834704 17.3314139 109.70958706 21.57543945 114.23364258 C24.23808336 117.0741894 26.83743001 119.95192744 29.3828125 122.8984375 C38.6447408 133.53151679 48.82786761 143.39945818 60 152 C61.47733259 153.15787227 62.95382187 154.31682096 64.4296875 155.4765625 C71.19964962 160.78118865 77.96502849 166.04946449 85 171 C82.61388903 182.37494689 67.41675812 192.03740833 58.26464844 198.16113281 C50.35430144 203.23441646 37.75364309 211 28 211 C24.61382647 203.05432837 21.32148235 195.12711565 18.61474609 186.92089844 C9.84984777 160.4714974 -4.00211348 136.00047221 -21 114 C-21.73992187 113.03578125 -22.47984375 112.0715625 -23.2421875 111.078125 C-24.81641729 109.04237402 -26.39975939 107.01532008 -28 105 C-31.04241291 106.33023955 -32.82599271 107.66240176 -34.875 110.265625 C-35.38546875 110.90886719 -35.8959375 111.55210938 -36.421875 112.21484375 C-36.94265625 112.88644531 -37.4634375 113.55804688 -38 114.25 C-38.52078125 114.90613281 -39.0415625 115.56226562 -39.578125 116.23828125 C-46.6397406 125.20795965 -49.01636737 129.8941012 -47.73632812 141.36230469 C-46.59883583 150.76251276 -45.2444066 160.06232331 -42.7421875 169.20703125 C-41.91301898 172.32732332 -41.26716808 175.4610595 -40.625 178.625 C-39.2625199 185.12576942 -37.5419291 191.48987437 -35.71337891 197.87158203 C-34.65768602 201.56445326 -33.67483898 205.2134035 -33 209 C-38.35535861 208.44686437 -42.36562585 206.5721109 -47.0625 204.125 C-47.75666016 203.77308594 -48.45082031 203.42117187 -49.16601562 203.05859375 C-52.12618048 201.54618284 -54.98855457 200.00716334 -57.80859375 198.2421875 C-60.01514681 196.75343503 -60.01514681 196.75343503 -63 197 C-63.185625 196.443125 -63.37125 195.88625 -63.5625 195.3125 C-65.39728905 192.36088283 -67.64507709 191.0029506 -70.5390625 189.1484375 C-71.02117187 188.76945313 -71.50328125 188.39046875 -72 188 C-72 187.34 -72 186.68 -72 186 C-72.85464844 185.64615234 -72.85464844 185.64615234 -73.7265625 185.28515625 C-79.82358502 181.83855761 -84.45621 174.9699129 -88.625 169.4375 C-89.11226562 168.79683594 -89.59953125 168.15617188 -90.1015625 167.49609375 C-91.50361061 163.60083835 -90.64478039 159.98588194 -90 156 C-89.85127441 155.00508545 -89.70254883 154.0101709 -89.54931641 152.98510742 C-88.87289345 148.4791264 -88.17476304 143.97676699 -87.4609375 139.4765625 C-85.22928447 124.88754715 -84.79090555 110.37957742 -84.75976562 95.65039062 C-84.75008596 92.89942872 -84.7189488 90.14922478 -84.6875 87.3984375 C-84.62299978 76.18664905 -85.52992026 65.4735772 -87.35253906 54.41064453 C-88.7545196 45.41845346 -88.7545196 45.41845346 -86.98120117 42.0847168 C-86.50658447 41.54500244 -86.03196777 41.00528809 -85.54296875 40.44921875 C-85.01324463 39.83771973 -84.48352051 39.2262207 -83.93774414 38.59619141 C-83.36016357 37.96632324 -82.78258301 37.33645508 -82.1875 36.6875 C-81.59509521 36.02669434 -81.00269043 35.36588867 -80.39233398 34.68505859 C-69.32840281 22.57892674 -54.61879541 11.50113325 -39 6 C-38.01 6 -37.02 6 -36 6 C-36.59638234 9.58467248 -37.20359678 13.16743488 -37.8125 16.75 C-37.97814453 17.74644531 -38.14378906 18.74289063 -38.31445312 19.76953125 C-39.17560889 24.80648007 -40.15061851 29.75676672 -41.4375 34.703125 C-43.23367844 41.66936154 -44.52152894 48.70725567 -45.78979492 55.78466797 C-46.1920749 58.02548351 -46.60249489 60.26470799 -47.01367188 62.50390625 C-47.27391704 63.94001735 -47.53370001 65.3762123 -47.79296875 66.8125 C-48.0252417 68.09769531 -48.25751465 69.38289063 -48.49682617 70.70703125 C-49.10069951 74.10381915 -49.10069951 74.10381915 -49 78 C-41.16273068 67.44924996 -33.33395417 56.90958308 -26 46 C-25.58717773 45.39607422 -25.17435547 44.79214844 -24.74902344 44.16992188 C-15.18591481 30.14025401 -7.55208385 15.18070908 0 0 Z M-69 196 C-66.03 196.495 -66.03 196.495 -63 197 C-62.67 197.99 -62.34 198.98 -62 200 C-60.50014391 201.66710346 -60.50014391 201.66710346 -59 203 C-63.43458973 201.6062718 -65.87378374 199.39417765 -69 196 Z " fill="#FEFCFC" transform="translate(112,6)"/>
<path d="M0 0 C2.45524851 1.9299222 4.83363031 3.92263713 7.19921875 5.9609375 C7.88371094 6.51265625 8.56820312 7.064375 9.2734375 7.6328125 C29.50303721 24.32521305 42.2201253 51.15330616 45.19921875 76.9609375 C45.45196906 81.54840079 45.52961783 86.12146929 45.51489258 90.71411133 C45.51173773 92.76112509 45.53527729 94.80667947 45.56054688 96.85351562 C45.6230916 109.54952325 43.57340474 121.61280926 39.01171875 133.5234375 C38.71056152 134.32007813 38.4094043 135.11671875 38.09912109 135.9375 C33.36278479 148.06174248 26.73476364 158.1160566 18.19921875 167.9609375 C17.41546875 168.9921875 16.63171875 170.0234375 15.82421875 171.0859375 C11.71926675 175.58183731 7.00423268 179.23966312 2.19921875 182.9609375 C1.02359375 183.87746094 1.02359375 183.87746094 -0.17578125 184.8125 C-12.35108083 193.82057638 -26.1023743 199.56836494 -40.80078125 202.9609375 C-41.59436035 203.14712646 -42.38793945 203.33331543 -43.20556641 203.52514648 C-50.61011289 205.07540017 -57.93899762 205.30063954 -65.47851562 205.27661133 C-67.53440043 205.27346259 -69.58882411 205.29696235 -71.64453125 205.32226562 C-90.85024035 205.41440343 -110.65662325 200.6685562 -126.80078125 189.9609375 C-128.4375 188.28515625 -128.4375 188.28515625 -129.61328125 186.7109375 C-132.08427948 183.60453973 -133.79655799 183.29077951 -137.4453125 182.0859375 C-154.09570148 174.13351291 -166.89298634 151.80211259 -173.29296875 135.21484375 C-178.2053554 121.24796929 -180.35210849 107.82078383 -180.17578125 93.0234375 C-180.17112854 92.32371826 -180.16647583 91.62399902 -180.16168213 90.90307617 C-179.92396387 60.38109614 -168.79575986 31.62946002 -146.80078125 9.9609375 C-107.27559883 -26.03408509 -43.93634629 -31.98713077 0 0 Z M-121.80078125 -5.0390625 C-121.30578125 -2.5640625 -121.30578125 -2.5640625 -120.80078125 -0.0390625 C-121.51878906 0.21746094 -122.23679688 0.47398438 -122.9765625 0.73828125 C-131.99519316 4.64261237 -139.85239438 12.14595966 -146.80078125 18.9609375 C-147.67863281 19.78207031 -148.55648437 20.60320313 -149.4609375 21.44921875 C-153.17589155 25.3249436 -155.59532743 28.13358383 -156.20703125 33.57421875 C-155.93845655 38.26948008 -155.27498287 42.76906728 -154.2824707 47.35668945 C-152.43213682 56.68971046 -152.53238399 65.94046556 -152.5949707 75.41381836 C-152.61317658 78.25709095 -152.61547998 81.10003458 -152.61523438 83.94335938 C-152.64281067 99.09017669 -153.42370399 113.85001566 -155.80078125 128.8359375 C-156.32452311 132.20610248 -156.84443882 135.57643869 -157.34619141 138.94995117 C-157.6306189 140.83386324 -157.93448329 142.71505898 -158.26708984 144.59106445 C-158.86328957 148.3820914 -159.08700917 150.33240776 -157.46484375 153.89453125 C-156.79195312 154.72082031 -156.1190625 155.54710937 -155.42578125 156.3984375 C-154.69359375 157.31109375 -153.96140625 158.22375 -153.20703125 159.1640625 C-152.41296875 160.08703125 -151.61890625 161.01 -150.80078125 161.9609375 C-149.98609375 162.92515625 -149.17140625 163.889375 -148.33203125 164.8828125 C-145.17358662 168.52390001 -145.17358662 168.52390001 -141.80078125 171.9609375 C-141.14078125 171.9609375 -140.48078125 171.9609375 -139.80078125 171.9609375 C-139.47078125 172.9509375 -139.14078125 173.9409375 -138.80078125 174.9609375 C-137.2359664 176.29622274 -137.2359664 176.29622274 -135.36328125 177.4609375 C-132.66157283 179.22071417 -131.66806705 180.1600088 -129.80078125 182.9609375 C-128.15459012 183.67667277 -126.48230172 184.3326771 -124.80078125 184.9609375 C-121.60041881 186.57195516 -118.47190042 188.32088029 -115.328125 190.0390625 C-108.46442824 193.82449897 -108.46442824 193.82449897 -100.80078125 194.9609375 C-101.45936692 191.43841774 -102.31185223 188.03839218 -103.32421875 184.6015625 C-106.51802639 173.59403916 -109.48303505 162.74007487 -111.25390625 151.41015625 C-111.69099056 148.65340305 -112.21153553 145.98410719 -112.86328125 143.2734375 C-114.2551651 137.22634549 -115.0522588 131.11545546 -115.80078125 124.9609375 C-115.98125 124.043125 -116.16171875 123.1253125 -116.34765625 122.1796875 C-117.23937529 115.13086083 -114.28893742 111.10473309 -110.17578125 105.7109375 C-108.10457819 103.07981131 -105.97307344 100.50902707 -103.80078125 97.9609375 C-102.94081543 96.95063477 -102.94081543 96.95063477 -102.06347656 95.91992188 C-100.6471731 94.26298837 -99.22462348 92.61139727 -97.80078125 90.9609375 C-94.56535634 92.33593877 -92.91513218 93.74950427 -90.8828125 96.6015625 C-90.35534424 97.33503906 -89.82787598 98.06851563 -89.28442383 98.82421875 C-88.73294678 99.61183594 -88.18146973 100.39945312 -87.61328125 101.2109375 C-87.03666748 102.02433594 -86.46005371 102.83773437 -85.8659668 103.67578125 C-71.71470153 123.76628071 -58.05801415 145.52592019 -50.72265625 169.140625 C-49.4139994 173.14422773 -47.75690205 176.97550674 -46.10546875 180.84765625 C-43.87562688 186.16856633 -41.84537433 191.56669192 -39.80078125 196.9609375 C-23.128639 192.58161903 -9.44434183 184.91640566 3.63671875 173.8359375 C4.21615234 173.34528809 4.79558594 172.85463867 5.39257812 172.34912109 C8.16210255 169.94150484 10.629261 167.5265103 12.921875 164.65625 C15.19921875 161.9609375 15.19921875 161.9609375 18.19921875 160.9609375 C18.19921875 161.6209375 18.19921875 162.2809375 18.19921875 162.9609375 C18.85921875 162.9609375 19.51921875 162.9609375 20.19921875 162.9609375 C21.86997349 160.80758816 23.39138835 158.67039295 24.88671875 156.3984375 C25.55501709 155.38438843 25.55501709 155.38438843 26.23681641 154.34985352 C33.36282763 143.28132978 38.10245048 131.78830937 41.19921875 118.9609375 C41.37582031 118.36120117 41.55242187 117.76146484 41.734375 117.14355469 C43.66634001 109.95733483 43.57139469 102.64812248 43.56982422 95.26220703 C43.57415747 92.99302751 43.61045097 90.72586312 43.6484375 88.45703125 C43.84767373 62.81367565 33.80439988 39.33884119 17.19921875 19.9609375 C16.52246094 19.13851562 15.84570312 18.31609375 15.1484375 17.46875 C-1.84506185 -2.47608836 -26.31797066 -13.85217045 -51.80078125 -18.0390625 C-52.72375 -18.22210937 -53.64671875 -18.40515625 -54.59765625 -18.59375 C-77.99209496 -21.84614758 -101.53853795 -16.95500787 -121.80078125 -5.0390625 Z " fill="#FE2504" transform="translate(179.80078125,20.0390625)"/>
<path d="M0 0 C2.45524851 1.9299222 4.83363031 3.92263713 7.19921875 5.9609375 C7.88371094 6.51265625 8.56820312 7.064375 9.2734375 7.6328125 C29.50303721 24.32521305 42.2201253 51.15330616 45.19921875 76.9609375 C45.45196906 81.54840079 45.52961783 86.12146929 45.51489258 90.71411133 C45.51173773 92.76112509 45.53527729 94.80667947 45.56054688 96.85351562 C45.6230916 109.54952325 43.57340474 121.61280926 39.01171875 133.5234375 C38.71056152 134.32007813 38.4094043 135.11671875 38.09912109 135.9375 C33.36278479 148.06174248 26.73476364 158.1160566 18.19921875 167.9609375 C17.41546875 168.9921875 16.63171875 170.0234375 15.82421875 171.0859375 C11.71926675 175.58183731 7.00423268 179.23966312 2.19921875 182.9609375 C1.02359375 183.87746094 1.02359375 183.87746094 -0.17578125 184.8125 C-10.31604319 192.31492353 -23.3639258 199.44584094 -35.80078125 201.9609375 C-38.12890625 201.55078125 -38.12890625 201.55078125 -39.80078125 200.9609375 C-38.77082031 200.63222656 -37.74085938 200.30351562 -36.6796875 199.96484375 C-21.60383526 194.99493962 -7.75294593 188.58745958 4.19921875 177.9609375 C4.93011719 177.37183594 5.66101563 176.78273437 6.4140625 176.17578125 C26.18458509 159.81037503 39.73100772 133.19019528 42.43371582 107.7539978 C42.73364476 103.38804525 42.77126603 99.03335502 42.72070312 94.65869141 C42.69921098 92.46014276 42.72068376 90.26485898 42.74609375 88.06640625 C42.79796756 62.5786593 32.63326871 39.22954259 16.19921875 19.9609375 C15.5959375 19.21199219 14.99265625 18.46304688 14.37109375 17.69140625 C-2.03453946 -1.98846048 -27.01084906 -12.96601218 -51.80078125 -17.0390625 C-52.72375 -17.22210937 -53.64671875 -17.40515625 -54.59765625 -17.59375 C-77.92199252 -20.83640163 -100.07889386 -15.58781786 -120.80078125 -5.0390625 C-120.70539063 -4.27722656 -120.61 -3.51539062 -120.51171875 -2.73046875 C-120.80078125 -0.0390625 -120.80078125 -0.0390625 -122.71484375 1.55859375 C-124.05675781 2.28369141 -124.05675781 2.28369141 -125.42578125 3.0234375 C-132.98760467 7.51570631 -139.39277613 12.97590302 -145.80078125 18.9609375 C-146.76628906 19.84910156 -147.73179687 20.73726562 -148.7265625 21.65234375 C-152.39858623 25.48426898 -154.60913112 28.19392334 -155.19140625 33.5625 C-154.94237441 38.26537052 -154.27620852 42.76340204 -153.2824707 47.35668945 C-151.43213682 56.68971046 -151.53238399 65.94046556 -151.5949707 75.41381836 C-151.61317658 78.25709095 -151.61547998 81.10003458 -151.61523438 83.94335938 C-151.64281067 99.09017669 -152.42370399 113.85001566 -154.80078125 128.8359375 C-155.32453419 132.20617383 -155.84446911 135.57656889 -156.34594727 138.95019531 C-156.63044631 140.83341713 -156.93500853 142.71384134 -157.26928711 144.58886719 C-157.87430864 148.41549906 -158.08806156 150.33890605 -156.4296875 153.9296875 C-155.74777344 154.765 -155.06585938 155.6003125 -154.36328125 156.4609375 C-153.61820313 157.38648438 -152.873125 158.31203125 -152.10546875 159.265625 C-151.34492188 160.15507812 -150.584375 161.04453125 -149.80078125 161.9609375 C-149.16398437 162.74726563 -148.5271875 163.53359375 -147.87109375 164.34375 C-143.42256894 169.64137083 -138.43231744 173.84083262 -132.92578125 178.015625 C-132.22453125 178.65757812 -131.52328125 179.29953125 -130.80078125 179.9609375 C-130.80078125 180.9509375 -130.80078125 181.9409375 -130.80078125 182.9609375 C-137.09215372 182.6409218 -140.51477187 181.3997933 -145.05078125 176.8984375 C-145.60016357 176.36968018 -146.1495459 175.84092285 -146.71557617 175.29614258 C-167.75581246 154.40040927 -180.07607653 126.81110561 -180.21826172 97.07617188 C-180.20607232 95.7252412 -180.19187864 94.37432726 -180.17578125 93.0234375 C-180.17112854 92.32371826 -180.16647583 91.62399902 -180.16168213 90.90307617 C-179.92396387 60.38109614 -168.79575986 31.62946002 -146.80078125 9.9609375 C-107.27559883 -26.03408509 -43.93634629 -31.98713077 0 0 Z " fill="#FD290B" transform="translate(179.80078125,20.0390625)"/>
<path d="M0 0 C2.45524851 1.9299222 4.83363031 3.92263713 7.19921875 5.9609375 C7.88371094 6.51265625 8.56820312 7.064375 9.2734375 7.6328125 C29.50303721 24.32521305 42.2201253 51.15330616 45.19921875 76.9609375 C45.45196906 81.54840079 45.52961783 86.12146929 45.51489258 90.71411133 C45.51173773 92.76112509 45.53527729 94.80667947 45.56054688 96.85351562 C45.6230916 109.54952325 43.57340474 121.61280926 39.01171875 133.5234375 C38.71056152 134.32007813 38.4094043 135.11671875 38.09912109 135.9375 C33.36278479 148.06174248 26.73476364 158.1160566 18.19921875 167.9609375 C17.41546875 168.9921875 16.63171875 170.0234375 15.82421875 171.0859375 C11.71926675 175.58183731 7.00423268 179.23966312 2.19921875 182.9609375 C1.02359375 183.87746094 1.02359375 183.87746094 -0.17578125 184.8125 C-10.31604319 192.31492353 -23.3639258 199.44584094 -35.80078125 201.9609375 C-38.12890625 201.55078125 -38.12890625 201.55078125 -39.80078125 200.9609375 C-38.77082031 200.63222656 -37.74085938 200.30351562 -36.6796875 199.96484375 C-21.60383526 194.99493962 -7.75294593 188.58745958 4.19921875 177.9609375 C4.93011719 177.37183594 5.66101563 176.78273437 6.4140625 176.17578125 C26.18458509 159.81037503 39.73100772 133.19019528 42.43371582 107.7539978 C42.73364476 103.38804525 42.77126603 99.03335502 42.72070312 94.65869141 C42.69921098 92.46014276 42.72068376 90.26485898 42.74609375 88.06640625 C42.79796756 62.5786593 32.63326871 39.22954259 16.19921875 19.9609375 C15.5959375 19.21199219 14.99265625 18.46304688 14.37109375 17.69140625 C-2.03453946 -1.98846048 -27.01084906 -12.96601218 -51.80078125 -17.0390625 C-52.72375 -17.22210937 -53.64671875 -17.40515625 -54.59765625 -17.59375 C-81.79294968 -21.37455909 -110.60697804 -13.92183908 -132.8359375 2.15625 C-135.56031328 4.35567574 -138.18715282 6.63148612 -140.80078125 8.9609375 C-141.65285156 9.66992188 -142.50492188 10.37890625 -143.3828125 11.109375 C-157.07167804 22.75857855 -165.8564894 38.60178844 -172.80078125 54.9609375 C-174.55667664 49.69325133 -171.00099332 44.59646355 -168.70654297 39.76806641 C-164.73980947 31.85384502 -159.39818455 24.78119692 -153.80078125 17.9609375 C-153.2696875 17.29449219 -152.73859375 16.62804688 -152.19140625 15.94140625 C-116.29427434 -27.39156013 -44.35304424 -32.29050082 0 0 Z " fill="#FBEFEC" transform="translate(179.80078125,20.0390625)"/>
<path d="M0 0 C1.1171875 1.515625 1.1171875 1.515625 2 4 C1.52485754 6.73056553 0.94949735 9.12573933 0.125 11.75 C-0.22075073 12.87402222 -0.22075073 12.87402222 -0.57348633 14.02075195 C-5.01854945 27.79827931 -12.16741392 39.61674962 -21 51 C-21.59554687 51.76957031 -22.19109375 52.53914063 -22.8046875 53.33203125 C-27.50120122 59.02852038 -33.16663088 63.51529282 -39 68 C-39.78117187 68.6084375 -40.56234375 69.216875 -41.3671875 69.84375 C-51.50417567 77.35263013 -64.56244277 84.48476152 -77 87 C-79.328125 86.58984375 -79.328125 86.58984375 -81 86 C-79.97003906 85.67128906 -78.94007813 85.34257812 -77.87890625 85.00390625 C-62.80305401 80.03400212 -48.95216468 73.62652208 -37 63 C-36.26910156 62.41089844 -35.53820312 61.82179687 -34.78515625 61.21484375 C-16.39578681 45.99271193 -4.88798036 23.02496012 0 0 Z " fill="#FAE6E1" transform="translate(221,135)"/>
<path d="M0 0 C-1.32 1.32 -2.64 2.64 -4 4 C-5.07378906 3.52949219 -6.14757812 3.05898438 -7.25390625 2.57421875 C-8.69009791 1.94529822 -10.12629618 1.31639277 -11.5625 0.6875 C-12.26697266 0.37876953 -12.97144531 0.07003906 -13.69726562 -0.24804688 C-15.11253704 -0.86763574 -16.52872167 -1.48514273 -17.94580078 -2.10058594 C-19.26135771 -2.67659161 -20.57272641 -3.26231971 -21.87841797 -3.86035156 C-32.10151403 -8.46960875 -43.94464428 -8.41894396 -55 -9 C-55 -9.33 -55 -9.66 -55 -10 C-52.69 -10 -50.38 -10 -48 -10 C-48 -10.66 -48 -11.32 -48 -12 C-32.27704036 -15.57339992 -13.66411939 -7.21161857 0 0 Z " fill="#FB2B15" transform="translate(167,15)"/>
<path d="M0 0 C4.43694887 1.63601783 8.4855492 3.80278028 12.625 6.0625 C17.66812506 8.84441474 17.66812506 8.84441474 23 11 C24.02019573 11.9793879 25.02149805 12.97895449 26 14 C26.66 14.33 27.32 14.66 28 15 C27.67 15.99 27.34 16.98 27 18 C21.5943153 17.41745395 17.28618066 15.55365264 12.4375 13.25 C11.69564453 12.91484375 10.95378906 12.5796875 10.18945312 12.234375 C5.6675373 10.1083095 2.21710042 7.94970745 -1 4 C-1 1 -1 1 0 0 Z " fill="#FB4F3C" transform="translate(50,202)"/>
<path d="M0 0 C2.31 1.98 4.62 3.96 7 6 C7.33 5.34 7.66 4.68 8 4 C12 4 12 4 14.5 6.3125 C15.7375 7.6428125 15.7375 7.6428125 17 9 C17.763125 9.53625 18.52625 10.0725 19.3125 10.625 C19.869375 11.07875 20.42625 11.5325 21 12 C21 12.99 21 13.98 21 15 C14.00308842 14.74682228 10.87969178 12.95925364 6 8.0625 C5.41605469 7.51142578 4.83210938 6.96035156 4.23046875 6.39257812 C2.76671897 4.98196212 1.3763868 3.49598139 0 2 C0 1.34 0 0.68 0 0 Z " fill="#FA796A" transform="translate(28,188)"/>
<path d="M0 0 C0.66 0.33 1.32 0.66 2 1 C1.443125 1.70382813 0.88625 2.40765625 0.3125 3.1328125 C-8.06784729 13.9763024 -14.63308383 25.35678403 -20 38 C-21.75589539 32.73231383 -18.20021207 27.63552605 -15.90576172 22.80712891 C-11.87027239 14.75572944 -6.39557762 6.39557762 0 0 Z " fill="#F9E5E0" transform="translate(27,37)"/>
<path d="M0 0 C0.33 0.99 0.66 1.98 1 3 C0.67 3.66 0.34 4.32 0 5 C-7.59 4.34 -15.18 3.68 -23 3 C-23 2.67 -23 2.34 -23 2 C-20.69 2 -18.38 2 -16 2 C-16 1.34 -16 0.68 -16 0 C-10.42289352 -1.06795656 -5.60563042 -0.82622671 0 0 Z " fill="#FC3219" transform="translate(135,3)"/>
<path d="M0 0 C2.91517292 1.07401108 4.77810176 1.77810176 7 4 C7 5.32 7 6.64 7 8 C8.4166747 9.7511573 8.4166747 9.7511573 10 11 C5.03297196 9.72936492 2.28106063 7.95657311 -1 4 C-1 1 -1 1 0 0 Z " fill="#FB503D" transform="translate(50,202)"/>
<path d="M0 0 C4.875 4.75 4.875 4.75 6 7 C5.34 7.66 4.68 8.32 4 9 C4.3185177 11.10820797 4.3185177 11.10820797 5 13 C1.82537057 10.59757773 -0.85751741 8.38286724 -3 5 C-3 4.34 -3 3.68 -3 3 C-2.01 3 -1.02 3 0 3 C0 2.01 0 1.02 0 0 Z " fill="#F96757" transform="translate(23,175)"/>
<path d="M0 0 C0.66 0.33 1.32 0.66 2 1 C-1.22374759 4.33120584 -4.57963968 7.49562556 -8 10.625 C-8.825 11.38039062 -9.65 12.13578125 -10.5 12.9140625 C-12.89232994 14.91016279 -15.28691589 16.47873498 -18 18 C-16.42732682 13.65202121 -13.03829094 11.25232086 -9.5625 8.4375 C-4.62498247 4.39270745 -4.62498247 4.39270745 0 0 Z " fill="#FBF4F0" transform="translate(194,189)"/>
<path d="M0 0 C1.295322 2.15404908 2.05007843 3.45696407 1.81567383 5.9987793 C1.61482178 6.68367432 1.41396973 7.36856934 1.20703125 8.07421875 C0.98853516 8.82380859 0.77003906 9.57339844 0.54492188 10.34570312 C0.30322266 11.11849609 0.06152344 11.89128906 -0.1875 12.6875 C-0.40986328 13.47189453 -0.63222656 14.25628906 -0.86132812 15.06445312 C-1.46866219 17.07787868 -2.22504747 19.0449589 -3 21 C-3.99 21.33 -4.98 21.66 -6 22 C-5.81824219 21.41734375 -5.63648438 20.8346875 -5.44921875 20.234375 C-3.39764489 13.54308794 -1.64771106 6.80119035 0 0 Z " fill="#FBDED8" transform="translate(221,135)"/>
<path d="M0 0 C4.95 0.99 4.95 0.99 10 2 C10 3.32 10 4.64 10 6 C6.7 5.34 3.4 4.68 0 4 C0 2.68 0 1.36 0 0 Z " fill="#FB1A04" transform="translate(135,4)"/>
<path d="M0 0 C3.37503669 1.1858237 5.64722731 2.27573689 8 5 C6.35 5.66 4.7 6.32 3 7 C1.35 5.35 -0.3 3.7 -2 2 C-1.34 1.34 -0.68 0.68 0 0 Z " fill="#FB270F" transform="translate(174,21)"/>
<path d="M0 0 C3 1.8125 3 1.8125 6 4 C6 4.99 6 5.98 6 7 C3.03 6.505 3.03 6.505 0 6 C0 4.02 0 2.04 0 0 Z " fill="#FA220D" transform="translate(43,196)"/>
<path d="M0 0 C4.62 0 9.24 0 14 0 C14 0.33 14 0.66 14 1 C11.69 1 9.38 1 7 1 C7 1.66 7 2.32 7 3 C4.69 3 2.38 3 0 3 C0 2.01 0 1.02 0 0 Z " fill="#FD1300" transform="translate(112,2)"/>
<path d="M0 0 C-0.75 2.9375 -0.75 2.9375 -2 6 C-4.125 6.875 -4.125 6.875 -6 7 C-6.33 5.35 -6.66 3.7 -7 2 C-2.25 0 -2.25 0 0 0 Z " fill="#FB2F17" transform="translate(157,211)"/>
<path d="M0 0 C3.875 1.75 3.875 1.75 5 4 C2.69 4.66 0.38 5.32 -2 6 C-2.33 5.01 -2.66 4.02 -3 3 C-2.01 2.01 -1.02 1.02 0 0 Z " fill="#F92D13" transform="translate(67,10)"/>
<path d="M0 0 C2.475 0.99 2.475 0.99 5 2 C4.67 3.32 4.34 4.64 4 6 C2.35 5.67 0.7 5.34 -1 5 C-0.67 3.35 -0.34 1.7 0 0 Z " fill="#FD331D" transform="translate(145,6)"/>
<path d="M0 0 C2.74148672 0.37047118 4.58593199 0.68587944 6.8125 2.375 C8 4 8 4 8 7 C4.2047869 5.50902342 2.38957269 3.24299151 0 0 Z " fill="#FBFAFA" transform="translate(187,29)"/>
<path d="M0 0 C0.33 0.99 0.66 1.98 1 3 C-0.40445835 5.2636564 -2.1967913 7.0208685 -4 9 C-4.99 8.67 -5.98 8.34 -7 8 C-4.69 5.36 -2.38 2.72 0 0 Z " fill="#F9DFD8" transform="translate(201,180)"/>
<path d="M0 0 C1.98 0.66 3.96 1.32 6 2 C5.34 3.32 4.68 4.64 4 6 C2.68 5.34 1.36 4.68 0 4 C0 2.68 0 1.36 0 0 Z " fill="#F92008" transform="translate(56,206)"/>
<path d="M0 0 C-2.85306797 2.32472205 -5.54074837 3.7508258 -9 5 C-8.00233891 2.50584728 -7.31383315 1.21259665 -5.0625 -0.3125 C-3 -1 -3 -1 0 0 Z " fill="#FBE8E4" transform="translate(65,11)"/>
<path d="M0 0 C0.763125 0.0825 1.52625 0.165 2.3125 0.25 C1.6525 1.57 0.9925 2.89 0.3125 4.25 C-1.6675 4.25 -3.6475 4.25 -5.6875 4.25 C-3.34903846 0.31153846 -3.34903846 0.31153846 0 0 Z " fill="#FC2914" transform="translate(25.6875,44.75)"/>
<path d="M0 0 C0.99 0.33 1.98 0.66 3 1 C1.02 2.98 -0.96 4.96 -3 7 C-3.66 6.67 -4.32 6.34 -5 6 C-3.35 4.02 -1.7 2.04 0 0 Z " fill="#FBFAF9" transform="translate(33,30)"/>
</svg>
