<svg version="1.1" id="Layer_1" xmlns="http://www.w3.org/2000/svg" xmlns:xlink="http://www.w3.org/1999/xlink" x="0px" y="0px"
	 width="100%" viewBox="0 0 225 225" enable-background="new 0 0 225 225" xml:space="preserve">
<path fill="#FF2402" opacity="1.000000" stroke="none" 
	d="
M108.690804,1.227021 
	C110.714355,1.000000 112.428719,1.000000 114.571533,1.000000 
	C119.844299,1.778839 124.781906,1.697807 129.606659,2.235240 
	C139.025085,3.284363 148.261459,5.804600 156.918472,9.686455 
	C192.885986,25.814505 215.304184,53.166821 223.954422,91.685829 
	C224.570435,94.428886 225.246262,97.201683 224.767883,100.464462 
	C224.118591,109.364899 224.393494,117.875572 224.604095,126.786079 
	C224.909515,138.227615 221.168793,148.372620 217.119095,158.320068 
	C214.322906,165.188492 211.061539,171.956085 205.951813,178.000336 
	C205.492096,178.390030 205.306030,178.536850 204.600555,179.124725 
	C203.628021,180.065704 203.296936,180.637238 202.962845,181.604645 
	C202.557281,182.620117 202.111801,183.168365 201.082657,183.622452 
	C199.294083,183.824677 198.298141,183.115692 197.320679,181.690598 
	C196.283478,178.382492 193.785507,176.894409 191.517899,175.223801 
	C174.459579,162.656265 158.020752,149.379242 143.531097,133.828064 
	C131.151794,120.541817 119.367393,106.739983 107.815796,92.738678 
	C104.447571,88.656166 104.512123,87.085732 108.427544,83.366913 
	C121.052193,71.376213 135.264282,61.501434 150.141953,52.535267 
	C159.275665,47.030743 168.148651,41.110958 177.129089,35.363651 
	C180.981796,32.897995 180.896225,32.022343 177.154129,29.309475 
	C159.750473,16.692509 140.573685,9.018194 118.880836,8.014972 
	C115.461197,7.856825 113.727852,8.793185 112.363091,11.845018 
	C101.126915,36.970924 85.518532,59.365623 68.741287,81.001312 
	C67.104065,83.112656 65.535233,87.150551 62.700363,85.944534 
	C60.078831,84.829285 62.264454,81.122162 62.683735,78.657104 
	C66.287796,57.467991 70.503990,36.396328 75.151306,15.138441 
	C75.118362,14.507082 74.943314,14.254648 74.374710,14.136095 
	C73.783905,14.273355 73.428802,14.309696 72.790947,14.181805 
	C71.814957,13.502748 71.439659,12.775298 71.430740,11.546915 
	C71.586937,10.785132 71.754074,10.373257 72.141876,9.696018 
	C72.766678,8.893538 73.313576,8.547090 74.315659,8.430430 
	C75.086220,8.326199 75.865921,9.114232 76.123665,7.668291 
	C83.115974,3.930214 90.580009,3.051345 97.959381,2.141976 
	C101.380394,1.720402 104.890472,1.420231 108.690804,1.227021 
z"/>
<path fill="#FEFDFD" opacity="1.000000" stroke="none" 
	d="
M204.114243,178.242676 
	C214.271683,165.214371 219.792953,150.432129 222.986679,134.663284 
	C223.381439,132.714111 223.646561,130.738708 223.917191,128.368744 
	C223.086807,118.966156 223.686371,109.954582 223.706360,100.492508 
	C216.977859,54.509556 191.638214,23.911137 148.640457,8.126732 
	C140.986710,5.317055 132.998322,2.524610 124.230225,3.449681 
	C121.662697,3.720565 118.243301,2.426719 115.112968,1.398310 
	C150.797180,1.000000 186.594421,1.027701 222.391403,0.943858 
	C225.060364,0.937606 226.111984,1.086667 226.105698,4.384678 
	C225.967422,77.144272 225.963181,149.904251 226.114731,222.663788 
	C226.121902,226.101715 224.880188,226.048553 222.342941,226.043152 
	C191.207840,225.976868 160.072556,226.000000 128.468658,226.000000 
	C127.898720,225.759598 127.797432,225.519211 127.892761,224.941132 
	C133.323242,221.706085 139.466660,222.103683 145.259201,219.874435 
	C147.638351,219.434586 149.592499,218.841248 151.757416,217.820633 
	C152.254715,217.582306 152.454422,217.492111 152.957687,217.284805 
	C154.255554,216.839218 155.278442,216.593246 156.762909,215.878235 
	C157.472000,215.539612 157.647263,215.461670 158.083069,215.274551 
	C158.681335,215.024811 159.018417,214.882706 159.591248,214.621613 
	C160.139053,214.353287 160.451477,214.204498 160.989685,213.938507 
	C161.364990,213.741669 161.515518,213.664154 161.895126,213.478607 
	C162.432556,213.233856 162.739548,213.094070 163.268127,212.828735 
	C163.640671,212.625351 163.790237,212.544479 164.167587,212.349365 
	C164.547318,212.160019 164.699265,212.084915 165.076874,211.894928 
	C165.452118,211.703506 165.601715,211.626999 165.977417,211.442368 
	C166.504898,211.198700 166.804810,211.060013 167.316528,210.798264 
	C167.529785,210.678329 167.953049,210.436935 168.165375,210.320068 
	C168.660461,210.051926 168.939407,209.893921 169.409546,209.590286 
	C169.858368,209.257217 170.115753,209.067902 170.574402,208.746750 
	C171.047516,208.446732 171.329178,208.295013 171.824814,208.033264 
	C172.032547,207.911606 172.439758,207.647522 172.638229,207.501999 
	C172.967422,207.252823 173.098129,207.149185 173.430695,206.890320 
	C173.776337,206.640564 173.920135,206.546021 174.292084,206.324524 
	C174.675507,206.115173 174.830780,206.032776 175.221649,205.823029 
	C175.616302,205.608292 175.775375,205.520874 176.175262,205.300568 
	C176.742722,204.979736 177.060959,204.778336 177.607071,204.376450 
	C178.003174,204.054626 178.164734,203.922684 178.579437,203.592957 
	C185.799759,198.142502 192.245651,192.339325 197.693893,185.488312 
	C198.428894,184.564087 199.317200,183.876785 200.658997,183.202286 
	C201.277512,182.597900 201.640579,182.224365 202.073181,181.597107 
	C202.361176,180.687393 202.488449,179.997055 203.214340,179.473831 
	C203.555130,179.543808 203.466263,179.474777 203.521301,179.463058 
	C203.282516,179.012146 203.328674,178.631943 204.114243,178.242676 
z"/>
<path fill="#FEFDFD" opacity="1.000000" stroke="none" 
	d="
M75.297134,9.136312 
	C74.427391,9.096128 73.859932,9.205675 73.102409,9.539671 
	C72.787903,9.944829 72.663475,10.125535 72.255249,10.474657 
	C71.619583,10.919903 71.288811,11.220181 70.678200,11.713440 
	C55.276878,17.577318 42.679504,26.882280 31.593727,38.921497 
	C31.270506,39.372803 31.143812,39.552921 30.820694,39.992241 
	C30.488943,40.415859 30.353617,40.580280 29.799492,41.203938 
	C29.240360,41.807049 29.100029,41.950924 28.751326,42.305634 
	C28.142845,42.930878 27.742348,43.344936 27.092262,44.277321 
	C26.669445,44.887444 26.556637,45.032440 26.255545,45.374580 
	C25.682474,45.937592 25.283581,46.289124 24.770882,46.890617 
	C24.397854,47.357666 24.183193,47.620586 23.814873,48.079296 
	C23.469486,48.541042 23.283218,48.810349 22.985683,49.295967 
	C22.865593,49.506176 22.621515,49.921070 22.495481,50.124069 
	C22.199711,50.594986 22.043032,50.870338 21.801901,51.371933 
	C21.704390,51.590748 21.493332,52.025578 21.374052,52.237160 
	C21.087780,52.730968 20.919115,53.012188 20.619230,53.508282 
	C20.294044,54.000690 20.079178,54.261501 19.676594,54.698608 
	C19.394766,55.018517 19.284353,55.148796 19.017387,55.484947 
	C18.761688,55.834461 18.662544,55.978115 18.423561,56.345871 
	C18.107420,56.886753 17.939238,57.207802 17.655310,57.794796 
	C17.435791,58.230888 17.339279,58.404846 17.082632,58.837692 
	C16.696413,59.458176 16.480295,59.825668 16.118742,60.507172 
	C10.348308,70.925087 6.489528,81.662720 4.384302,93.036392 
	C4.024810,94.978561 3.800310,97.043808 1.371548,98.064789 
	C1.000000,66.899979 1.059797,35.799667 0.910474,4.700362 
	C0.894994,1.476501 1.768484,0.917122 4.784272,0.927158 
	C39.210110,1.041722 73.636467,1.000000 108.531342,1.000000 
	C106.160667,3.482123 102.596413,2.333939 99.378746,2.860606 
	C91.596664,4.134373 83.900169,5.720965 76.136261,8.422655 
	C75.783432,8.875611 75.691429,9.080827 75.297134,9.136312 
z"/>
<path fill="#FEFDFD" opacity="1.000000" stroke="none" 
	d="
M98.150940,225.639587 
	C66.904137,226.000000 35.808002,225.942322 4.712811,226.087082 
	C1.521663,226.101929 0.911610,225.276581 0.924127,222.229141 
	C1.049114,191.798935 1.000000,161.368027 1.000000,130.468658 
	C4.328437,130.674103 3.852884,133.652878 4.351332,135.858688 
	C7.078663,147.928070 10.964863,159.527222 17.794647,170.361450 
	C18.552656,171.567093 18.887300,172.600586 19.620941,173.759674 
	C19.926115,174.148254 20.046350,174.303238 20.333313,174.696991 
	C20.697153,175.262604 20.885309,175.594543 21.207077,176.171661 
	C21.442692,176.571579 21.536423,176.731033 21.768881,177.128906 
	C22.183859,177.839584 22.458941,178.312561 22.957577,178.967010 
	C23.240957,179.326843 23.353386,179.471802 23.634117,179.834229 
	C24.034012,180.337524 24.273691,180.616425 24.719509,181.085693 
	C25.046646,181.418701 25.174465,181.555450 25.472462,181.915619 
	C25.848860,182.447800 26.051245,182.759048 26.412096,183.295288 
	C26.793282,183.807800 27.011887,184.098083 27.399483,184.597031 
	C27.793789,185.078491 28.023493,185.347458 28.450214,185.791214 
	C28.771076,186.087967 28.901020,186.204697 29.225908,186.496140 
	C29.548729,186.789474 29.676609,186.908127 30.176529,187.395325 
	C30.667349,187.892578 30.786127,188.021301 31.235607,188.562775 
	C31.675915,189.117783 31.785522,189.260040 32.076134,189.605942 
	C32.667900,190.213150 33.104939,190.588303 33.741428,191.216919 
	C36.135784,194.127960 38.497627,196.619232 41.527351,198.903137 
	C42.153156,199.342453 42.493168,199.608200 43.055130,200.092316 
	C43.878246,200.832138 44.456181,201.383469 45.453930,201.860260 
	C46.271782,202.220352 46.784000,202.517853 47.461998,203.094910 
	C48.068943,203.707458 48.443893,204.138275 49.102119,204.672211 
	C49.475147,204.938828 49.625095,205.042679 49.999756,205.298325 
	C50.524815,205.644760 50.829979,205.831512 51.378090,206.130386 
	C51.770969,206.337357 51.925838,206.424118 52.300720,206.659210 
	C52.662441,206.912659 52.804157,207.017761 53.381126,207.423309 
	C54.121677,207.908325 54.427830,208.091461 54.971298,208.410278 
	C55.517963,208.750427 55.823711,208.959991 56.365955,209.328735 
	C56.941109,209.681763 57.279404,209.875061 57.896507,210.198700 
	C58.357903,210.431229 58.543854,210.527542 59.009239,210.777985 
	C61.167355,212.042709 62.939735,213.355316 65.384399,214.084229 
	C66.292320,214.428787 66.863373,214.724991 67.708084,215.170639 
	C68.836205,215.841812 69.604294,216.520920 70.912514,216.825180 
	C71.416862,216.927109 71.620827,216.967484 72.747025,217.305115 
	C74.684242,218.079483 75.699387,218.556213 77.142258,218.918640 
	C83.930771,221.276642 90.735619,222.155441 97.563431,224.399445 
	C98.025360,224.837631 98.163620,225.058395 98.150940,225.639587 
z"/>
<path fill="#FE2404" opacity="1.000000" stroke="none" 
	d="
M17.786383,172.262177 
	C10.037234,160.772537 5.610526,148.207428 2.919296,134.961746 
	C2.592001,133.350876 2.157396,131.761795 1.386263,130.081299 
	C1.000000,119.645775 1.000000,109.291542 1.000000,98.468658 
	C3.222417,97.340813 2.547151,95.284866 2.810730,93.849594 
	C5.050704,81.652260 9.173429,70.154701 15.523752,59.141075 
	C16.195814,58.731991 16.548454,58.467087 16.648239,57.867058 
	C16.446827,57.600414 16.678949,57.628193 16.572765,57.579323 
	C17.580980,57.909359 17.412415,56.963402 17.661583,56.063801 
	C17.699348,55.717781 17.820084,55.872852 17.735363,55.823067 
	C18.406406,55.696236 18.484125,55.085548 18.818197,54.300133 
	C19.275597,53.901009 19.519705,53.699741 19.811398,53.241550 
	C20.311256,52.723774 20.654812,52.354240 20.551800,51.791283 
	C20.185503,51.672916 20.276114,51.461090 20.348997,51.371880 
	C21.752705,52.296814 21.284206,50.817287 21.581528,50.044838 
	C21.699545,49.770348 21.839779,49.880917 21.771154,49.826241 
	C22.477751,49.738468 22.463284,49.008152 22.790340,48.156071 
	C22.906273,47.566086 22.990023,47.293728 23.400442,46.963692 
	C24.509520,46.556011 24.891607,45.606564 25.535625,44.832417 
	C25.395180,44.522453 25.509459,44.441570 25.549791,44.384357 
	C25.835262,44.730843 26.089943,44.758205 26.124668,44.169285 
	C26.307457,43.378407 26.721331,42.764797 27.384113,42.011757 
	C28.048594,41.783997 28.408455,41.594109 28.715557,40.973061 
	C28.728010,40.660774 28.779974,40.791290 28.718460,40.757385 
	C29.103046,40.750568 29.469147,40.598892 29.674786,39.926449 
	C29.607925,39.614841 29.919796,39.746231 29.774769,39.659058 
	C30.533926,39.305161 31.399775,39.261185 32.300114,40.285904 
	C32.513329,40.782619 32.556931,40.995724 32.579945,41.530907 
	C32.418861,42.465843 32.193295,43.051003 31.868063,43.918533 
	C31.419756,44.920353 30.863964,45.456287 30.048882,46.127739 
	C29.583426,46.558830 29.337908,46.821514 28.959616,47.322819 
	C28.703804,47.690495 28.598228,47.835735 28.306141,48.175995 
	C27.834423,48.586491 27.538221,48.785473 27.003887,49.102657 
	C26.634222,49.335297 26.489519,49.429970 26.164112,49.698322 
	C25.828053,50.198765 25.805851,50.540932 25.932011,51.190243 
	C26.277903,53.027950 26.146141,54.607670 26.529842,56.499359 
	C26.732365,57.343838 26.853367,57.834465 27.072186,58.717308 
	C28.903826,70.299820 29.714588,81.571510 30.528868,92.861794 
	C32.318501,117.675568 28.368469,141.960312 24.444107,166.271484 
	C24.153126,168.074112 23.659765,169.860596 23.995632,172.079849 
	C24.286064,173.307343 24.359283,174.201111 24.718784,175.320312 
	C24.934357,175.737671 25.030010,175.896088 25.282467,176.275146 
	C25.547783,176.635422 25.656296,176.775040 25.924736,177.119873 
	C26.183355,177.463928 26.282049,177.602753 26.510326,177.955933 
	C26.639912,178.170273 26.877449,178.600281 26.995647,178.810669 
	C27.113848,179.021057 27.362873,179.426361 27.498558,179.618896 
	C27.634243,179.811447 27.931742,180.174118 28.252455,180.516632 
	C28.573168,180.859146 28.893658,181.203445 29.045391,181.383087 
	C29.197126,181.562744 29.465378,181.947556 29.578892,182.151382 
	C29.692408,182.355209 29.896801,182.771027 29.994843,182.979568 
	C30.092882,183.188110 30.306637,183.594727 30.457108,183.770050 
	C30.607576,183.945389 30.946817,184.269104 31.297604,184.597549 
	C31.648388,184.925995 32.008942,185.266998 32.383125,185.620178 
	C32.886925,186.097031 33.016533,186.220718 33.533180,186.752258 
	C34.034813,187.318710 34.149414,187.477341 34.392609,187.908508 
	C34.560009,188.382767 34.598820,188.584488 34.620220,189.098877 
	C34.402451,190.275391 33.925545,190.969986 32.976593,191.668915 
	C32.162640,191.388733 31.657219,191.004135 31.060551,190.314484 
	C31.238777,189.851364 31.336628,189.680450 31.264433,189.496078 
	C31.189924,189.305771 31.111954,189.210327 30.815105,189.388519 
	C30.601221,189.566696 30.588741,189.469986 30.542683,189.453995 
	C30.751497,188.977646 30.687067,188.585327 29.913076,188.388153 
	C29.577808,188.503540 29.601978,188.416916 29.557251,188.421585 
	C29.775961,187.995712 29.724764,187.624329 28.967045,187.336914 
	C28.629166,187.351532 28.873545,187.087555 28.770035,187.234650 
	C28.630312,186.408539 27.592672,186.160446 26.960648,185.267441 
	C26.347376,185.079575 26.116331,184.905487 25.963129,184.373184 
	C25.562738,183.601288 25.550220,182.898285 24.848711,182.394302 
	C24.524158,182.437820 24.759485,182.109619 24.622501,182.257965 
	C24.652145,181.440384 23.856255,181.020874 23.113070,180.260269 
	C22.862923,180.091110 22.977007,180.047684 22.935192,180.092133 
	C22.522085,179.144562 21.863352,178.321564 21.031677,177.288055 
	C20.756676,177.137573 20.867231,177.117783 20.838230,177.165863 
	C20.608540,176.580536 20.553886,175.896423 19.828737,175.396545 
	C19.501476,175.461655 19.454454,175.333359 19.495899,175.387604 
	C19.442747,174.240128 18.391642,173.473145 17.786383,172.262177 
z"/>
<path fill="#FCCDC5" opacity="1.000000" stroke="none" 
	d="
M98.468658,226.000000 
	C98.000000,226.000000 97.971230,225.559647 97.967560,225.339035 
	C98.361122,224.604492 98.862122,224.229187 99.925514,223.872070 
	C108.478813,223.450745 116.575684,223.619492 125.144653,223.699265 
	C126.249374,223.854691 126.839516,224.079453 127.711807,224.765274 
	C128.035629,225.116760 128.027252,225.558762 128.013626,225.779388 
	C118.312439,226.000000 108.624878,226.000000 98.468658,226.000000 
z"/>
<path fill="#FEFDFD" opacity="1.000000" stroke="none" 
	d="
M24.119339,175.269913 
	C21.064756,172.609161 22.311827,169.696472 22.879721,166.765076 
	C29.621817,131.962952 31.569197,97.000099 26.257607,61.805950 
	C26.109297,60.823273 26.082325,59.822281 25.893383,58.404800 
	C25.574631,57.617035 25.367704,57.250664 25.255379,56.576565 
	C25.343199,54.492947 25.343800,52.712894 25.368412,50.545563 
	C25.465971,49.887691 25.539518,49.617100 25.993427,49.526054 
	C26.373791,49.705605 26.499189,49.598682 26.565144,49.549294 
	C26.221292,48.625206 26.962204,48.621403 27.642475,48.205788 
	C27.838875,47.988510 28.121735,47.822502 28.141621,47.659725 
	C28.222347,47.006252 28.431715,46.586800 29.095545,46.072723 
	C29.921820,45.446777 30.422226,44.977127 30.959282,44.246780 
	C31.487913,43.571491 31.502104,42.896152 32.162640,42.431454 
	C32.467621,42.455795 32.457863,42.365974 32.502899,42.369476 
	C33.664639,38.253811 37.411026,36.329750 40.182636,33.751099 
	C49.530853,25.053713 59.824112,17.714663 72.629593,13.957350 
	C73.298691,14.047652 73.590637,14.012543 74.021095,13.691916 
	C74.242538,12.889280 74.597351,12.567453 75.614975,12.727723 
	C76.618683,19.577036 73.952522,25.735382 72.789711,32.117207 
	C69.526703,50.025307 65.856232,67.859161 62.045048,87.256477 
	C69.662155,78.682831 75.268242,70.432114 81.088226,62.366623 
	C92.981720,45.884293 103.753426,28.726799 111.799828,9.983418 
	C112.680557,7.931846 113.458382,6.355217 116.332214,6.355950 
	C138.314499,6.361557 166.677002,17.435738 183.209457,32.918926 
	C174.600311,38.423828 166.146042,43.924316 157.598114,49.275215 
	C141.237946,59.516468 124.846893,69.695793 110.572372,82.863083 
	C105.343636,87.686241 105.222198,87.651802 109.630135,93.002014 
	C127.002647,114.088203 144.824585,134.764526 165.234528,153.035355 
	C174.674164,161.485657 185.159210,168.604141 195.129288,176.378937 
	C196.285461,177.280502 198.478409,177.606064 197.919434,180.269318 
	C193.794098,187.985107 187.005066,192.806274 181.199112,198.532928 
	C180.273346,199.446091 179.108780,200.118546 177.906036,201.232941 
	C177.509430,201.587555 177.349930,201.722092 176.943909,202.035751 
	C176.366699,202.416183 176.027603,202.601837 175.441101,202.889969 
	C175.055634,203.099594 174.905792,203.184982 174.544403,203.408356 
	C174.332840,203.546356 173.938782,203.849380 173.574341,204.179230 
	C173.209900,204.509079 172.850967,204.843277 172.664459,205.003174 
	C172.477951,205.163071 172.076721,205.447723 171.862289,205.567383 
	C171.354462,205.832825 171.061783,205.980057 170.555847,206.254822 
	C170.197327,206.464462 170.052795,206.547989 169.687042,206.751617 
	C169.166779,207.028595 168.866989,207.184113 168.343048,207.463943 
	C167.969604,207.672272 167.819641,207.754929 167.446335,207.964127 
	C166.929688,208.267456 166.640732,208.451065 166.150864,208.799271 
	C165.804016,209.055725 165.663116,209.155487 165.300446,209.388245 
	C164.773727,209.676453 164.465988,209.825943 163.930618,210.089722 
	C163.554459,210.287430 163.403488,210.365860 163.022339,210.554047 
	C162.480347,210.804947 162.170639,210.950577 161.633804,211.231323 
	C161.248810,211.451523 161.092743,211.540466 160.695740,211.758820 
	C160.121841,212.061829 159.788254,212.234207 159.189423,212.548126 
	C158.737854,212.782791 158.550934,212.874786 158.072571,213.102356 
	C155.376389,214.629578 152.631454,215.149963 149.805481,216.371338 
	C148.715927,216.828842 147.886566,217.023346 146.794098,217.400574 
	C145.735352,217.767212 144.935577,217.939880 143.906830,218.417389 
	C143.433350,218.666626 143.241470,218.769836 142.743866,219.010559 
	C141.982239,219.292801 141.530914,219.266891 140.795410,218.886536 
	C136.423721,210.080460 133.436569,201.064438 130.215240,192.155334 
	C120.380669,164.956284 106.022163,140.328827 88.332001,117.566582 
	C84.274582,112.345840 83.385590,112.452499 79.076088,117.745193 
	C75.710640,121.878456 72.727570,126.324753 69.260468,130.353806 
	C65.547440,134.668655 64.841354,139.417740 65.592499,144.788696 
	C68.709717,167.078033 72.664650,189.171417 80.005287,210.538330 
	C81.670311,215.384888 81.175613,216.068237 76.282005,217.009460 
	C75.439438,216.845657 74.977234,216.695801 74.213692,216.353745 
	C73.702148,216.090225 73.506004,215.976364 73.036926,215.672791 
	C72.107903,214.963181 71.486298,214.387970 70.355392,214.077637 
	C69.873550,213.929504 69.682541,213.867035 69.213692,213.692322 
	C68.401970,213.328964 67.885193,213.044266 67.104828,212.641251 
	C66.527992,212.302826 66.211327,212.091919 65.659065,211.730667 
	C64.749336,211.236542 64.029892,211.045059 63.008781,210.847992 
	C62.545326,210.711456 62.364128,210.641754 61.932472,210.423615 
	C61.083614,209.801163 60.500225,209.305359 59.542320,208.856827 
	C58.950924,208.559219 58.628307,208.365631 58.091225,207.993317 
	C57.569031,207.625259 57.272366,207.417206 56.744911,207.075531 
	C56.364697,206.847687 56.213184,206.756485 55.836239,206.527878 
	C55.305393,206.212143 54.996235,206.040588 54.439804,205.757782 
	C54.038204,205.549072 53.880215,205.458160 53.498497,205.206863 
	C53.131123,204.931503 52.987476,204.816544 52.415745,204.353943 
	C51.699398,203.782455 51.407265,203.563766 50.881271,203.205368 
	C50.500370,202.962128 50.349407,202.863846 49.980953,202.609406 
	C49.626282,202.341934 49.489098,202.230637 48.952160,201.784241 
	C48.271381,201.245468 47.980896,201.056305 47.443317,200.759811 
	C47.049271,200.546646 46.893116,200.454910 46.513466,200.200195 
	C46.144619,199.917068 45.999271,199.796936 45.414284,199.290787 
	C44.821941,198.769775 44.669231,198.634796 44.039970,198.072540 
	C40.603321,194.471512 37.160664,191.777176 34.333469,188.072906 
	C34.275288,187.732269 34.075382,187.920914 34.190292,187.845520 
	C33.885983,187.749908 33.554058,187.564362 33.318306,186.938049 
	C33.339878,186.638519 33.090122,186.957443 33.228951,186.809967 
	C32.929249,186.747421 32.580818,186.599655 32.326233,185.942993 
	C32.342960,185.633255 32.095619,185.960510 32.233391,185.808563 
	C31.920410,185.738617 31.564734,185.583420 31.358147,184.912399 
	C31.425280,184.601089 31.009226,184.841888 31.209249,184.708466 
	C30.932793,184.745285 30.584213,184.590027 30.565699,183.903259 
	C30.786524,183.649734 30.692808,183.420624 30.606361,183.332062 
	C29.573727,183.746002 29.618464,182.874664 29.254118,182.120377 
	C29.140244,181.828125 29.079084,181.917511 29.132296,181.907455 
	C28.838459,181.761765 28.549013,181.546509 28.262875,180.991928 
	C28.216866,180.720749 28.182045,180.830933 28.235950,180.810150 
	C27.866959,180.743362 27.533827,180.541382 27.345436,179.908279 
	C27.413759,179.609970 27.240276,179.992630 27.344906,179.810455 
	C26.567436,179.702652 26.573702,178.977631 26.229076,178.161346 
	C26.081701,177.886963 26.023380,177.958099 26.068932,177.951752 
	C25.804127,177.758423 25.534418,177.523895 25.271420,176.980148 
	C25.243391,176.711578 25.176302,176.853195 25.241283,176.809418 
	C24.619781,176.650208 24.482685,176.032074 24.119339,175.269913 
z"/>
<path fill="#FB2810" opacity="1.000000" stroke="none" 
	d="
M72.861801,13.674276 
	C59.830593,19.764391 47.771641,27.236565 37.513626,37.425873 
	C36.003418,38.925968 34.558666,40.491959 32.815784,42.200222 
	C32.033813,41.377205 31.629406,40.286495 30.019596,39.736660 
	C40.615585,26.694147 54.105667,17.304600 70.030823,10.831804 
	C70.587456,10.833347 70.793633,10.821856 71.503067,10.907351 
	C72.247993,11.798250 72.489662,12.592163 72.861801,13.674276 
z"/>
<path fill="#FB2911" opacity="1.000000" stroke="none" 
	d="
M175.828018,201.978058 
	C183.502472,195.332962 191.009491,188.793060 197.516510,180.756317 
	C198.268692,181.750259 198.933914,182.652634 200.568192,182.937592 
	C194.801682,191.578415 187.047012,198.504440 178.297882,204.838364 
	C176.957504,204.313187 176.414246,203.318069 175.828018,201.978058 
z"/>
<path fill="#FA0000" opacity="1.000000" stroke="none" 
	d="
M223.588501,100.345184 
	C223.920410,109.037674 223.982178,118.041695 223.953278,127.503860 
	C221.969376,122.710335 223.331909,117.282745 223.057190,111.944374 
	C222.864304,108.196220 223.212021,104.420250 223.588501,100.345184 
z"/>
<path fill="#FB2911" opacity="1.000000" stroke="none" 
	d="
M203.203323,179.520798 
	C203.266586,180.061829 202.978012,180.579849 202.416077,181.220627 
	C202.106308,180.623474 202.121918,179.923523 203.203323,179.520798 
z"/>
<path fill="#FB2810" opacity="1.000000" stroke="none" 
	d="
M75.798172,12.684377 
	C75.596359,13.060828 75.201080,13.227211 74.489944,13.460138 
	C74.263817,12.649603 74.578384,12.078143 75.798172,12.684377 
z"/>
<path fill="#FB2911" opacity="1.000000" stroke="none" 
	d="
M204.153839,178.247375 
	C204.303711,178.483948 204.151428,178.803299 203.787735,179.286987 
	C203.668106,179.077621 203.759903,178.703888 204.153839,178.247375 
z"/>
<path fill="#FB2810" opacity="1.000000" stroke="none" 
	d="
M75.111427,9.148142 
	C74.994843,8.986582 75.390381,8.703928 75.632912,8.687162 
	C75.822693,9.048629 75.875534,9.533799 75.111427,9.148142 
z"/>
<path fill="#FB2810" opacity="1.000000" stroke="none" 
	d="
M71.828217,10.272135 
	C71.993927,10.031484 72.414200,9.764134 72.663269,9.764127 
	C72.760239,10.080031 72.608147,10.395944 72.231186,10.858097 
	C72.006325,11.004338 71.999496,10.999491 71.996872,10.996679 
	C71.883667,10.833508 71.773087,10.673148 71.828217,10.272135 
z"/>
<path fill="#FF2402" opacity="1.000000" stroke="none" 
	d="
M145.733109,217.004150 
	C146.633423,216.418289 147.365448,216.127747 148.405228,215.846069 
	C150.350418,215.861664 151.667130,214.734695 153.241440,214.559296 
	C154.253586,214.446518 155.244797,214.671890 155.368851,215.901001 
	C155.497467,217.175079 154.459290,217.396866 153.316116,217.935211 
	C153.124985,218.258362 153.112625,218.154526 153.159561,218.177551 
	C151.226669,218.670776 149.273514,219.218002 147.226776,220.431000 
	C141.067154,222.680603 134.967224,223.910217 128.422485,225.003326 
	C127.571587,225.058594 127.107544,225.000443 126.295876,224.885010 
	C117.603058,224.070236 109.242020,224.647079 100.467018,224.680023 
	C99.579758,224.875168 99.114708,224.920319 98.306778,225.041946 
	C90.781204,223.914841 83.669472,222.412994 76.384262,219.981583 
	C75.416481,218.909897 74.540588,218.409363 73.091003,218.285645 
	C72.781204,218.212296 72.923126,218.115128 72.876129,218.187149 
	C72.877007,217.856552 72.698395,217.648758 72.143585,217.815857 
	C71.816856,218.008072 71.639839,218.020248 71.237595,217.890625 
	C70.196510,217.101166 69.244690,216.712250 68.003296,216.218872 
	C67.204193,216.021362 66.696167,215.925491 66.029953,215.620590 
	C64.528160,213.450272 59.934261,213.934219 61.934887,209.411880 
	C62.281429,209.105972 62.710648,209.159454 62.839001,209.333527 
	C63.223629,210.927505 64.645164,210.345917 65.693550,210.978668 
	C66.299095,210.964600 66.588158,211.006683 67.006584,211.332367 
	C67.273941,212.350983 67.936935,212.500336 68.955032,212.644119 
	C69.296196,212.656570 69.157913,212.738739 69.194740,212.667236 
	C69.809540,214.337875 72.140808,212.942810 73.123970,214.711670 
	C73.469414,214.845306 73.727592,214.684296 73.855392,214.766830 
	C74.170151,215.177658 74.413795,215.455093 74.977875,215.790604 
	C79.662498,216.713623 80.493652,215.415970 78.922737,211.055817 
	C70.926117,188.860657 67.202957,165.703125 63.958065,142.446411 
	C63.315792,137.843094 64.345490,134.102859 67.412590,130.540222 
	C71.968201,125.248589 76.219635,119.686493 80.438148,114.116531 
	C82.904770,110.859711 84.597870,110.402138 87.480690,114.042015 
	C108.985069,141.193619 124.981972,171.273560 136.097992,204.019257 
	C137.749023,208.882858 139.577515,213.686203 141.603729,218.741089 
	C142.153763,218.775360 142.413025,218.572021 142.829437,218.173492 
	C142.997559,217.992264 143.000610,218.000000 142.997772,217.998840 
	C143.724548,217.297440 144.746109,217.671783 145.733109,217.004150 
z"/>
<path fill="#FF2402" opacity="1.000000" stroke="none" 
	d="
M175.793900,201.652740 
	C177.068390,202.003189 178.046692,202.637146 177.969299,204.558212 
	C177.972794,204.931564 177.977417,204.987045 177.952255,204.975098 
	C177.539520,205.451569 176.919693,205.462158 176.247772,205.936768 
	C176.085037,206.173157 176.066742,206.071640 176.110062,206.099640 
	C175.577271,206.400772 174.919342,206.455643 174.355408,207.114838 
	C174.342133,207.432968 174.091248,207.246658 174.231873,207.314789 
	C173.966324,207.193451 173.632629,207.291245 173.228470,207.908081 
	C173.095169,208.178223 173.074783,208.076004 173.119278,208.103149 
	C172.576889,208.400467 171.904755,208.452805 171.254669,209.141510 
	C171.037903,209.766708 170.819824,209.968628 170.262512,210.059967 
	C169.411179,210.040344 168.868744,210.228287 168.265427,210.914734 
	C168.116608,211.172363 168.064484,211.041595 168.115051,211.090561 
	C167.593521,211.378967 166.970215,211.464005 166.285034,212.008972 
	C166.165176,212.294128 166.132614,212.180649 166.185669,212.206543 
	C165.613983,212.347488 164.989975,212.465195 164.296478,213.025177 
	C164.188065,213.323212 164.140778,213.202652 164.198792,213.231384 
	C163.620102,213.338013 162.996033,213.466309 162.291260,214.023315 
	C162.177841,214.321747 162.152252,214.207230 162.204590,214.233749 
	C161.604965,214.353378 160.956421,214.458618 160.255890,215.098648 
	C160.024521,215.723877 159.799438,215.906433 159.238403,215.935959 
	C158.117325,214.916061 157.896484,213.779861 158.517609,212.092804 
	C158.700378,211.673050 158.811371,211.971283 158.763367,211.822784 
	C159.366776,211.682785 159.985107,211.529892 160.715164,210.997681 
	C160.844528,210.704483 160.861938,210.816788 160.811508,210.790619 
	C161.386505,210.652206 162.010605,210.535065 162.698914,209.971237 
	C162.802658,209.671494 162.859955,209.803986 162.798218,209.766586 
	C163.385376,209.654877 164.023331,209.539154 164.655487,208.912445 
	C164.699631,208.590591 164.996750,208.875412 164.836548,208.746277 
	C165.590576,208.840103 166.103531,208.258652 166.806641,207.444427 
	C167.007904,207.233994 167.302429,206.930984 167.512161,206.905380 
	C168.324203,206.622818 168.982605,206.541016 169.695923,205.976837 
	C169.807175,205.670303 169.844650,205.793045 169.788788,205.761475 
	C170.421890,205.621002 171.125671,205.559799 171.577942,204.791321 
	C171.445984,204.468155 171.544434,204.491470 171.568512,204.446991 
	C171.950180,204.802139 172.295151,204.811996 172.698471,204.032074 
	C172.771454,203.695068 172.829971,203.812622 172.769043,203.788147 
	C173.091675,203.794449 173.400986,203.652405 173.803284,203.137833 
	C173.960678,202.915054 173.970474,202.995773 173.941467,202.967285 
	C174.430237,202.586365 175.069778,202.538162 175.693909,201.959869 
	C175.771790,201.662827 175.814926,201.662613 175.793900,201.652740 
z"/>
<path fill="#FB2911" opacity="1.000000" stroke="none" 
	d="
M158.346161,211.737366 
	C158.799545,212.804016 158.898712,213.934982 159.005020,215.492065 
	C159.012161,215.918198 158.623917,216.172928 158.388702,216.164734 
	C156.954681,217.355301 155.385727,217.780518 153.475937,218.242615 
	C153.594498,217.440231 154.655701,216.336914 154.424225,215.856674 
	C153.686310,214.325745 152.504105,215.252792 151.603806,215.929382 
	C150.832291,216.509186 150.119385,216.516983 149.017548,215.981750 
	C151.805969,214.503860 154.898956,213.152786 158.346161,211.737366 
z"/>
<path fill="#FB2911" opacity="1.000000" stroke="none" 
	d="
M147.319534,220.610962 
	C148.057510,218.234543 150.406296,218.484024 152.825531,218.140411 
	C151.634979,219.645447 149.489670,219.732376 147.319534,220.610962 
z"/>
<path fill="#FB2911" opacity="1.000000" stroke="none" 
	d="
M168.408783,211.151764 
	C168.218445,210.232559 167.931320,208.909653 169.854202,209.827576 
	C169.588181,210.421463 169.144562,210.776306 168.408783,211.151764 
z"/>
<path fill="#FB2911" opacity="1.000000" stroke="none" 
	d="
M176.373474,206.132095 
	C176.499466,205.790115 176.913910,205.407089 177.627731,204.993622 
	C177.505386,205.339127 177.083664,205.715088 176.373474,206.132095 
z"/>
<path fill="#FB2911" opacity="1.000000" stroke="none" 
	d="
M174.624023,207.355682 
	C174.346603,206.665588 174.742783,206.237030 175.820160,206.118546 
	C175.737564,206.511215 175.321747,206.894806 174.624023,207.355682 
z"/>
<path fill="#FB2911" opacity="1.000000" stroke="none" 
	d="
M171.449646,209.362503 
	C171.281693,208.696960 171.711029,208.241165 172.819153,208.124725 
	C172.693130,208.512665 172.222504,208.895050 171.449646,209.362503 
z"/>
<path fill="#FB2911" opacity="1.000000" stroke="none" 
	d="
M166.464615,212.249329 
	C166.332138,211.581528 166.780487,211.183548 167.835663,211.117310 
	C167.698425,211.494537 167.231247,211.849533 166.464615,212.249329 
z"/>
<path fill="#FB2911" opacity="1.000000" stroke="none" 
	d="
M164.492340,213.280624 
	C164.344315,212.574921 164.806259,212.184265 165.903198,212.188202 
	C165.758026,212.567642 165.277328,212.902847 164.492340,213.280624 
z"/>
<path fill="#FB2911" opacity="1.000000" stroke="none" 
	d="
M162.484314,214.290070 
	C162.347046,213.572281 162.815765,213.184265 163.920135,213.208588 
	C163.768143,213.592880 163.279465,213.925629 162.484314,214.290070 
z"/>
<path fill="#FB2911" opacity="1.000000" stroke="none" 
	d="
M160.443237,215.335754 
	C160.312485,214.646744 160.771759,214.214310 161.909363,214.209671 
	C161.753479,214.595322 161.250031,214.930374 160.443237,215.335754 
z"/>
<path fill="#FB2911" opacity="1.000000" stroke="none" 
	d="
M173.361526,208.141968 
	C173.330719,207.901596 173.566284,207.624985 174.087158,207.365631 
	C174.124283,207.623840 173.876099,207.864777 173.361526,208.141968 
z"/>
<path fill="#FB2810" opacity="1.000000" stroke="none" 
	d="
M25.150078,44.695236 
	C25.800564,45.647305 25.211786,46.274181 23.942560,46.799637 
	C24.033178,46.200069 24.469078,45.534042 25.150078,44.695236 
z"/>
<path fill="#FB2810" opacity="1.000000" stroke="none" 
	d="
M17.447174,55.855339 
	C17.854580,56.423740 17.880678,57.091427 16.813246,57.534096 
	C16.709389,57.017933 16.952194,56.505413 17.447174,55.855339 
z"/>
<path fill="#FB2810" opacity="1.000000" stroke="none" 
	d="
M18.698315,54.089867 
	C18.756184,54.601761 18.506166,55.131908 17.953396,55.717674 
	C17.897238,55.218231 18.143833,54.663181 18.698315,54.089867 
z"/>
<path fill="#FB2810" opacity="1.000000" stroke="none" 
	d="
M21.343697,49.795818 
	C21.779785,50.353737 21.911879,51.024967 20.760078,51.367874 
	C20.657280,50.832401 20.892679,50.382126 21.343697,49.795818 
z"/>
<path fill="#FB2810" opacity="1.000000" stroke="none" 
	d="
M22.697409,48.021488 
	C22.708656,48.451233 22.464958,49.024101 21.891777,49.628983 
	C21.855684,49.162201 22.149073,48.663403 22.697409,48.021488 
z"/>
<path fill="#FB2810" opacity="1.000000" stroke="none" 
	d="
M19.981461,51.858673 
	C20.272053,51.889706 20.381933,52.100994 20.434937,52.325699 
	C20.460016,52.432011 20.376253,52.563999 20.113035,52.849823 
	C19.802347,52.805912 19.694714,52.601830 19.649942,52.384789 
	C19.629230,52.284370 19.731115,52.158672 19.981461,51.858673 
z"/>
<path fill="#FB2810" opacity="1.000000" stroke="none" 
	d="
M28.460079,40.772339 
	C28.556910,41.007862 28.385813,41.354954 27.923870,41.787186 
	C27.819399,41.542850 28.005774,41.213379 28.460079,40.772339 
z"/>
<path fill="#FF2402" opacity="1.000000" stroke="none" 
	d="
M71.671867,10.038260 
	C71.993927,10.031484 72.001396,10.512758 71.997818,10.753313 
	C71.725632,10.972719 71.457016,10.951569 70.784836,10.887628 
	C70.704117,10.578237 71.026962,10.311637 71.671867,10.038260 
z"/>
<path fill="#FB2810" opacity="1.000000" stroke="none" 
	d="
M25.776134,44.038147 
	C26.028757,44.187397 26.163935,44.382774 26.299110,44.578156 
	C26.168287,44.579300 26.037462,44.580441 25.748383,44.454361 
	C25.590124,44.327145 25.658686,44.084274 25.776134,44.038147 
z"/>
<path fill="#FB2810" opacity="1.000000" stroke="none" 
	d="
M16.245892,57.767723 
	C16.400709,57.957397 16.354591,58.314381 16.050100,58.799885 
	C15.876139,58.597282 15.960548,58.266159 16.245892,57.767723 
z"/>
<path fill="#FB2810" opacity="1.000000" stroke="none" 
	d="
M29.372559,39.722191 
	C29.482653,39.954418 29.357382,40.293991 28.944527,40.678524 
	C28.817028,40.425499 28.977112,40.127522 29.372559,39.722191 
z"/>
<path fill="#FB2812" opacity="1.000000" stroke="none" 
	d="
M34.155525,188.152222 
	C37.789368,190.904358 41.303448,194.076431 44.976433,197.540649 
	C44.651230,199.026031 43.682117,199.651596 42.194901,200.178955 
	C38.492306,198.081543 35.714447,195.199738 32.790668,192.058746 
	C33.123966,190.706268 33.579865,189.639221 34.155525,188.152222 
z"/>
<path fill="#FF2402" opacity="1.000000" stroke="none" 
	d="
M41.945354,200.512497 
	C42.333015,199.101334 43.127850,198.265320 44.781467,197.911835 
	C45.135338,197.832764 45.087906,197.880920 45.092953,197.847839 
	C45.219624,198.172913 45.422951,198.474228 45.997047,198.746948 
	C46.273258,198.784149 46.163719,198.821320 46.182457,198.766602 
	C46.254787,199.141983 46.442158,199.497925 47.084328,199.666397 
	C47.240643,199.665512 47.098782,199.765244 47.166676,199.708740 
	C47.239128,200.480392 47.984665,200.456345 48.831036,200.772842 
	C49.119164,200.911438 49.046341,200.968201 49.051090,200.922272 
	C49.234146,201.199280 49.459087,201.484818 50.012371,201.741684 
	C50.286652,201.756393 50.173336,201.796387 50.194427,201.740128 
	C50.617298,202.816528 51.745892,203.064590 52.914017,203.717010 
	C53.226212,203.789520 53.117344,203.861969 53.137932,203.799911 
	C53.266705,204.174500 53.488583,204.539505 54.121094,204.646454 
	C54.400551,204.471054 54.271351,204.878220 54.357674,204.682861 
	C54.126884,205.553009 55.014671,205.425751 55.901836,205.702682 
	C56.232342,205.779083 56.129410,205.828033 56.137768,205.771667 
	C56.359177,206.468506 57.030701,206.493881 57.908279,206.782440 
	C58.474838,206.865845 58.726723,206.928833 59.060287,207.274750 
	C59.446335,208.829437 62.203087,210.519257 58.256058,211.305237 
	C57.827682,211.163849 57.911606,211.110977 57.911415,211.160568 
	C57.617146,210.533234 56.964325,210.499969 56.092735,210.218765 
	C55.533932,210.108414 55.283714,210.037857 54.949821,209.707306 
	C54.747353,208.701294 54.122463,208.499847 53.107265,208.287506 
	C52.779037,208.202087 52.887569,208.139389 52.866776,208.198517 
	C52.733986,207.824020 52.511040,207.461014 51.880863,207.352936 
	C51.601681,207.526398 51.728424,207.160110 51.641121,207.333130 
	C51.869110,206.450455 50.989052,206.573334 50.112564,206.282318 
	C49.788437,206.191513 49.884266,206.133240 49.874641,206.188477 
	C49.358341,205.312637 48.371758,204.972946 47.358044,204.190643 
	C46.591099,203.725204 46.047909,203.460068 45.259430,202.982727 
	C44.471279,202.274109 44.108059,201.570297 43.100384,201.192337 
	C42.518173,201.099930 42.243019,200.989670 41.945354,200.512497 
z"/>
<path fill="#FB2812" opacity="1.000000" stroke="none" 
	d="
M58.026085,211.444397 
	C59.854919,210.888123 59.927319,209.698471 59.203506,207.796417 
	C60.058521,207.867233 60.945938,208.293350 62.057388,208.912720 
	C61.037094,212.373642 63.837902,213.225830 65.743530,215.050323 
	C63.322670,214.182678 60.773579,212.953812 58.026085,211.444397 
z"/>
<path fill="#FB2812" opacity="1.000000" stroke="none" 
	d="
M67.903931,216.369568 
	C68.868820,216.062042 70.115631,215.710098 70.927383,217.408813 
	C70.040123,217.373169 69.067871,216.997543 67.903931,216.369568 
z"/>
<path fill="#FB2812" opacity="1.000000" stroke="none" 
	d="
M72.967354,218.470291 
	C73.960632,218.058578 75.202438,217.710236 75.933777,219.543533 
	C75.058899,219.502380 74.106201,219.115326 72.967354,218.470291 
z"/>
<path fill="#FB2812" opacity="1.000000" stroke="none" 
	d="
M47.163464,204.307068 
	C48.304276,204.038803 49.200951,204.522919 49.791702,205.927628 
	C48.974224,205.703766 48.083431,205.163788 47.163464,204.307068 
z"/>
<path fill="#FB2812" opacity="1.000000" stroke="none" 
	d="
M17.545052,172.491089 
	C18.951006,172.346832 19.254128,173.553452 19.577751,175.074753 
	C18.907600,174.562836 18.277855,173.683853 17.545052,172.491089 
z"/>
<path fill="#FB2812" opacity="1.000000" stroke="none" 
	d="
M20.813423,177.449829 
	C22.029758,177.390579 22.751240,178.158646 22.903818,179.792389 
	C22.218971,179.345093 21.544573,178.553589 20.813423,177.449829 
z"/>
<path fill="#FB2812" opacity="1.000000" stroke="none" 
	d="
M22.907681,180.381195 
	C23.910158,180.140610 24.795128,180.375870 24.601978,182.059158 
	C23.974489,181.827972 23.463465,181.249619 22.907681,180.381195 
z"/>
<path fill="#FB2812" opacity="1.000000" stroke="none" 
	d="
M42.994408,201.307541 
	C43.745174,201.028305 44.538052,201.181503 44.954063,202.460556 
	C44.387634,202.365921 43.761124,201.961365 42.994408,201.307541 
z"/>
<path fill="#FB2812" opacity="1.000000" stroke="none" 
	d="
M26.786043,185.410553 
	C27.640961,185.270569 28.340614,185.748810 28.662605,187.042877 
	C28.075367,186.821472 27.484207,186.261215 26.786043,185.410553 
z"/>
<path fill="#FB2812" opacity="1.000000" stroke="none" 
	d="
M55.962238,210.365646 
	C56.415749,210.262970 57.020535,210.442062 57.768272,210.915649 
	C57.311985,211.022583 56.712749,210.835007 55.962238,210.365646 
z"/>
<path fill="#FB2812" opacity="1.000000" stroke="none" 
	d="
M49.926895,206.440872 
	C50.487659,206.096649 51.142078,206.126663 51.555099,207.166016 
	C51.057663,207.234177 50.561508,206.962204 49.926895,206.440872 
z"/>
<path fill="#FB2812" opacity="1.000000" stroke="none" 
	d="
M52.943108,208.475037 
	C53.513863,208.113358 54.192825,208.186386 54.752922,209.198151 
	C54.261948,209.277603 53.684566,209.012787 52.943108,208.475037 
z"/>
<path fill="#FB2812" opacity="1.000000" stroke="none" 
	d="
M19.600121,175.726196 
	C20.312662,175.364853 20.751467,175.741623 20.836678,176.873566 
	C20.439075,176.806213 20.068922,176.398483 19.600121,175.726196 
z"/>
<path fill="#FB2812" opacity="1.000000" stroke="none" 
	d="
M24.638071,182.699097 
	C25.305616,182.360413 25.749849,182.734756 25.929327,183.813507 
	C25.544230,183.752457 25.148108,183.356415 24.638071,182.699097 
z"/>
<path fill="#FB2812" opacity="1.000000" stroke="none" 
	d="
M72.182114,218.126999 
	C72.222046,217.669388 72.441612,217.288254 72.820770,218.063049 
	C72.829124,218.259171 72.370346,218.258087 72.182114,218.126999 
z"/>
<path fill="#FB2812" opacity="1.000000" stroke="none" 
	d="
M51.752007,207.730042 
	C51.952808,207.588776 52.303932,207.651169 52.750519,207.985596 
	C52.531433,208.149643 52.216881,208.041672 51.752007,207.730042 
z"/>
<path fill="#FB2812" opacity="1.000000" stroke="none" 
	d="
M30.640720,189.721039 
	C30.871330,189.508011 31.306280,188.934555 31.127178,189.897552 
	C30.969305,190.009445 30.680218,189.875397 30.640720,189.721039 
z"/>
<path fill="#FB2812" opacity="1.000000" stroke="none" 
	d="
M29.668358,188.713623 
	C29.907314,188.620758 30.236822,188.737976 30.531479,189.146606 
	C30.185884,189.359558 29.939980,189.188126 29.668358,188.713623 
z"/>
<path fill="#FB2812" opacity="1.000000" stroke="none" 
	d="
M28.701538,187.584473 
	C28.946857,187.515900 29.264545,187.680267 29.547379,188.135437 
	C29.186522,188.320129 28.940317,188.117188 28.701538,187.584473 
z"/>
<path fill="#FB2812" opacity="1.000000" stroke="none" 
	d="
M23.848297,175.149841 
	C24.413948,175.400848 24.784485,175.813370 25.230642,176.495758 
	C24.432592,176.647614 23.513342,176.581406 23.848297,175.149841 
z"/>
<path fill="#FB2810" opacity="1.000000" stroke="none" 
	d="
M32.150711,42.434540 
	C32.139771,42.884438 31.811922,43.313080 31.240005,43.863899 
	C31.275225,43.461819 31.554512,42.937553 32.150711,42.434540 
z"/>
<path fill="#FB2810" opacity="1.000000" stroke="none" 
	d="
M26.139484,49.535820 
	C26.283211,49.992401 26.089293,50.158974 25.592232,50.181801 
	C25.223364,49.953236 25.054300,49.748192 24.885237,49.543148 
	C25.225216,49.484112 25.565197,49.425072 26.139484,49.535820 
z"/>
<path fill="#FB2810" opacity="1.000000" stroke="none" 
	d="
M27.535767,48.037598 
	C27.581455,48.406879 27.324036,48.825245 26.848854,49.371758 
	C26.347151,48.822609 26.567436,48.359951 27.535767,48.037598 
z"/>
<path fill="#FB2812" opacity="1.000000" stroke="none" 
	d="
M29.133926,182.161713 
	C29.515882,182.153519 29.891520,182.478928 30.393536,183.023895 
	C29.750610,183.562027 29.313711,183.262009 29.133926,182.161713 
z"/>
<path fill="#FB2812" opacity="1.000000" stroke="none" 
	d="
M26.085777,178.217712 
	C26.477732,178.285904 26.873762,178.684830 27.359665,179.356018 
	C26.687639,179.657013 26.246252,179.282181 26.085777,178.217712 
z"/>
<path fill="#FB2812" opacity="1.000000" stroke="none" 
	d="
M27.398064,179.898376 
	C27.660925,179.836441 27.908098,180.062912 28.222561,180.539368 
	C27.987362,180.588501 27.684870,180.387650 27.398064,179.898376 
z"/>
<path fill="#FB2812" opacity="1.000000" stroke="none" 
	d="
M30.667913,183.894058 
	C31.032909,183.765472 31.214230,183.946426 31.369881,184.383820 
	C31.122620,184.429489 30.835962,184.283936 30.667913,183.894058 
z"/>
<path fill="#FB2812" opacity="1.000000" stroke="none" 
	d="
M28.262470,180.995758 
	C28.504749,180.931534 28.792631,181.142334 29.133011,181.625275 
	C28.893030,181.688522 28.600552,181.479645 28.262470,180.995758 
z"/>
<path fill="#FB2812" opacity="1.000000" stroke="none" 
	d="
M32.363247,185.921799 
	C32.625103,185.815170 32.907242,185.997070 33.278580,186.420731 
	C33.039696,186.511765 32.711613,186.361053 32.363247,185.921799 
z"/>
<path fill="#FB2810" opacity="1.000000" stroke="none" 
	d="
M29.100334,46.080154 
	C29.199654,46.323017 28.977892,46.729610 28.458817,47.316574 
	C28.367420,47.079262 28.573338,46.661575 29.100334,46.080154 
z"/>
<path fill="#FB2812" opacity="1.000000" stroke="none" 
	d="
M25.271534,176.984894 
	C25.512207,176.940506 25.781027,177.169434 26.082165,177.671875 
	C25.842882,177.716339 25.571281,177.487274 25.271534,176.984894 
z"/>
<path fill="#FB2810" opacity="1.000000" stroke="none" 
	d="
M25.283710,56.583591 
	C25.519596,56.634708 25.696594,56.996422 25.830791,57.668957 
	C25.600271,57.617916 25.412548,57.256050 25.283710,56.583591 
z"/>
<path fill="#FB2812" opacity="1.000000" stroke="none" 
	d="
M33.353230,186.926331 
	C33.611660,186.846863 33.883438,187.055206 34.230209,187.516846 
	C33.992325,187.584808 33.679451,187.399460 33.353230,186.926331 
z"/>
<path fill="#FB2812" opacity="1.000000" stroke="none" 
	d="
M31.415937,184.890610 
	C31.693295,184.790817 31.961306,184.980545 32.300240,185.413452 
	C32.049637,185.497787 31.728115,185.338959 31.415937,184.890610 
z"/>
<path fill="#FD0C00" opacity="1.000000" stroke="none" 
	d="
M100.505310,224.904144 
	C108.438103,223.171478 116.885544,224.116089 125.632751,224.566055 
	C117.620766,224.877930 109.293282,224.928101 100.505310,224.904144 
z"/>
<path fill="#FB2812" opacity="1.000000" stroke="none" 
	d="
M73.296616,214.534241 
	C72.122086,214.327194 70.774750,213.809082 69.329498,212.943359 
	C70.528976,213.138214 71.826393,213.680695 73.296616,214.534241 
z"/>
<path fill="#FB2812" opacity="1.000000" stroke="none" 
	d="
M65.729919,210.821182 
	C64.613007,212.034485 63.947884,210.848663 63.053120,209.804794 
	C63.800400,209.873474 64.633446,210.239349 65.729919,210.821182 
z"/>
<path fill="#FB2812" opacity="1.000000" stroke="none" 
	d="
M53.069672,203.517410 
	C51.917366,204.025955 50.917568,203.627914 50.273697,202.031799 
	C51.114723,202.204346 52.013927,202.724823 53.069672,203.517410 
z"/>
<path fill="#FB2911" opacity="1.000000" stroke="none" 
	d="
M145.557343,216.733032 
	C145.567047,217.818604 144.670761,217.973068 143.348083,218.000366 
	C143.330536,216.861954 144.384995,217.011795 145.557343,216.733032 
z"/>
<path fill="#FB2911" opacity="1.000000" stroke="none" 
	d="
M166.728989,207.274078 
	C166.857727,208.201691 166.431625,208.868896 164.996765,208.701843 
	C165.267578,208.182816 165.858826,207.748489 166.728989,207.274078 
z"/>
<path fill="#FB2812" opacity="1.000000" stroke="none" 
	d="
M56.101944,205.521393 
	C55.531902,205.884232 54.870960,205.873138 54.444279,204.829590 
	C54.953182,204.746216 55.462368,205.004959 56.101944,205.521393 
z"/>
<path fill="#FB2911" opacity="1.000000" stroke="none" 
	d="
M171.188293,204.566010 
	C171.613968,205.305603 171.240555,205.733643 170.076797,205.776978 
	C170.132156,205.374557 170.531387,205.019211 171.188293,204.566010 
z"/>
<path fill="#FB2812" opacity="1.000000" stroke="none" 
	d="
M58.028980,206.655426 
	C57.589348,206.725311 56.984882,206.531189 56.263271,206.026184 
	C56.718800,205.940659 57.291477,206.166016 58.028980,206.655426 
z"/>
<path fill="#FB2911" opacity="1.000000" stroke="none" 
	d="
M169.496307,205.730927 
	C169.643341,206.425278 169.163788,206.820328 168.064240,206.889328 
	C168.209732,206.517044 168.697586,206.154297 169.496307,205.730927 
z"/>
<path fill="#FB2911" opacity="1.000000" stroke="none" 
	d="
M164.409317,208.653595 
	C164.639038,209.385162 164.201523,209.789886 163.075500,209.781189 
	C163.197342,209.391663 163.658173,209.054138 164.409317,208.653595 
z"/>
<path fill="#FB2911" opacity="1.000000" stroke="none" 
	d="
M162.503693,209.719467 
	C162.653168,210.422028 162.195923,210.818054 161.096680,210.812805 
	C161.242294,210.432098 161.723511,210.099762 162.503693,209.719467 
z"/>
<path fill="#FB2911" opacity="1.000000" stroke="none" 
	d="
M160.536469,210.728699 
	C160.641968,211.447556 160.157547,211.819290 159.050385,211.743134 
	C159.219696,211.367157 159.724045,211.060043 160.536469,210.728699 
z"/>
<path fill="#FB2812" opacity="1.000000" stroke="none" 
	d="
M69.100372,212.412506 
	C68.564308,212.852234 67.882233,212.841080 67.253593,211.845123 
	C67.736610,211.723709 68.320580,211.946091 69.100372,212.412506 
z"/>
<path fill="#FB2911" opacity="1.000000" stroke="none" 
	d="
M175.489380,201.738129 
	C175.674927,202.379105 175.263840,202.795135 174.236145,202.935028 
	C174.343979,202.563675 174.775482,202.188553 175.489380,201.738129 
z"/>
<path fill="#FB2812" opacity="1.000000" stroke="none" 
	d="
M48.976551,200.664551 
	C48.550701,200.677536 47.982243,200.443634 47.395111,199.881104 
	C47.862274,199.840866 48.348106,200.129257 48.976551,200.664551 
z"/>
<path fill="#FB2812" opacity="1.000000" stroke="none" 
	d="
M75.138168,215.598740 
	C74.905022,215.724838 74.577126,215.542328 74.116203,215.104584 
	C74.336594,214.996292 74.690002,215.143219 75.138168,215.598740 
z"/>
<path fill="#FB2911" opacity="1.000000" stroke="none" 
	d="
M142.786713,218.122742 
	C142.796997,218.271149 142.596451,218.550034 142.139725,218.896820 
	C142.117828,218.730972 142.348587,218.493805 142.786713,218.122742 
z"/>
<path fill="#FB2812" opacity="1.000000" stroke="none" 
	d="
M54.251411,204.266357 
	C54.049728,204.408096 53.698906,204.345154 53.253304,204.010025 
	C53.473106,203.845795 53.787685,203.953735 54.251411,204.266357 
z"/>
<path fill="#FB2911" opacity="1.000000" stroke="none" 
	d="
M172.537109,203.742859 
	C172.563660,203.983582 172.355865,204.272110 171.870331,204.481567 
	C171.747772,204.103882 171.984497,203.899933 172.537109,203.742859 
z"/>
<path fill="#FB2812" opacity="1.000000" stroke="none" 
	d="
M50.174358,201.503662 
	C49.956467,201.628311 49.626278,201.500214 49.175964,201.124252 
	C49.391247,201.001221 49.726654,201.126068 50.174358,201.503662 
z"/>
<path fill="#FB2812" opacity="1.000000" stroke="none" 
	d="
M47.256599,199.341782 
	C47.038601,199.466049 46.694691,199.366348 46.275993,198.989258 
	C46.511032,198.847183 46.820862,198.982483 47.256599,199.341782 
z"/>
<path fill="#FB2812" opacity="1.000000" stroke="none" 
	d="
M46.172318,198.526291 
	C45.948265,198.634323 45.623276,198.484497 45.198143,198.074707 
	C45.422459,197.965973 45.746918,198.117203 46.172318,198.526291 
z"/>
<path fill="#FB2911" opacity="1.000000" stroke="none" 
	d="
M173.683395,202.935852 
	C173.725235,203.180557 173.489822,203.446075 172.981262,203.737640 
	C172.940781,203.494690 173.173462,203.225677 173.683395,202.935852 
z"/>
<path fill="#FF2402" opacity="1.000000" stroke="none" 
	d="
M158.080673,216.077484 
	C158.017456,215.991714 157.881409,215.826874 157.745377,215.662048 
	C157.831970,215.725739 157.918549,215.789413 158.082581,216.002655 
	C158.160019,216.152191 158.007858,215.998444 158.080673,216.077484 
z"/>
</svg>